<svg xmlns="http://www.w3.org/2000/svg" xmlns:xlink="http://www.w3.org/1999/xlink" width="500" zoomAndPan="magnify" viewBox="0 0 375 374.999991" height="500" preserveAspectRatio="xMidYMid meet" version="1.2"><defs/><g id="99b50edc0b"><g style="fill:#000000;fill-opacity:1;"><g transform="translate(175.417961, 174.749989)"><path style="stroke:none" d="M 17 0 L 15.84375 -2.96875 L 15.6875 -2.96875 C 14.6875 -1.707031 13.65625 -0.832031 12.59375 -0.34375 C 11.53125 0.144531 10.144531 0.390625 8.4375 0.390625 C 6.34375 0.390625 4.691406 -0.207031 3.484375 -1.40625 C 2.285156 -2.601562 1.6875 -4.3125 1.6875 -6.53125 C 1.6875 -8.84375 2.492188 -10.546875 4.109375 -11.640625 C 5.734375 -12.742188 8.179688 -13.359375 11.453125 -13.484375 L 15.234375 -13.59375 L 15.234375 -14.546875 C 15.234375 -16.765625 14.101562 -17.875 11.84375 -17.875 C 10.09375 -17.875 8.039062 -17.347656 5.6875 -16.296875 L 3.71875 -20.3125 C 6.226562 -21.625 9.015625 -22.28125 12.078125 -22.28125 C 15.003906 -22.28125 17.25 -21.640625 18.8125 -20.359375 C 20.375 -19.085938 21.15625 -17.148438 21.15625 -14.546875 L 21.15625 0 Z M 15.234375 -10.125 L 12.9375 -10.046875 C 11.195312 -9.992188 9.90625 -9.679688 9.0625 -9.109375 C 8.21875 -8.535156 7.796875 -7.660156 7.796875 -6.484375 C 7.796875 -4.804688 8.757812 -3.96875 10.6875 -3.96875 C 12.0625 -3.96875 13.160156 -4.363281 13.984375 -5.15625 C 14.816406 -5.945312 15.234375 -7.003906 15.234375 -8.328125 Z M 15.234375 -10.125 "/></g></g><path style=" stroke:none;fill-rule:evenodd;fill:#5c6b76;fill-opacity:1;" d="M 272.574219 324.1875 C 272.574219 324.1875 315.210938 244.476562 322.914062 260.210938 C 330.816406 276.382812 346.117188 308.363281 346.785156 310.949219 C 347.363281 313.214844 345.398438 319.65625 338.128906 329.015625 C 330.863281 338.378906 320.386719 343.539062 318.449219 342.699219 C 316.515625 341.851562 272.574219 324.1875 272.574219 324.1875 Z M 277.378906 59.527344 C 274.410156 54.238281 272.578125 50.8125 272.578125 50.8125 C 272.578125 50.8125 316.523438 33.148438 318.449219 32.308594 C 320.386719 31.46875 330.863281 36.628906 338.128906 45.988281 C 338.257812 46.15625 338.386719 46.328125 338.511719 46.484375 C 345.464844 55.574219 347.347656 61.828125 346.785156 64.050781 C 346.117188 66.636719 330.824219 98.617188 322.914062 114.789062 C 316.816406 127.265625 288.75 79.753906 277.378906 59.527344 Z M 28.613281 60.34375 C 29.585938 57.074219 32.070312 52.164062 36.871094 45.988281 C 44.136719 36.628906 54.613281 31.46875 56.550781 32.308594 C 58.027344 32.949219 83.910156 43.371094 96.136719 48.285156 C 97.253906 48.734375 98.25 49.140625 99.105469 49.476562 C 101.183594 50.308594 102.421875 50.8125 102.421875 50.8125 C 102.421875 50.8125 59.773438 130.523438 52.078125 114.789062 C 51.878906 114.375 51.675781 113.953125 51.464844 113.527344 C 43.410156 97.019531 28.859375 66.578125 28.214844 64.050781 C 28.019531 63.285156 28.117188 62.023438 28.613281 60.34375 Z M 35.011719 326.519531 C 29.265625 318.511719 27.691406 313.003906 28.214844 310.949219 C 28.753906 308.859375 38.859375 287.558594 46.882812 270.921875 C 48.789062 266.984375 50.574219 263.308594 52.085938 260.210938 C 59.78125 244.476562 102.425781 324.1875 102.425781 324.1875 C 102.425781 324.1875 58.484375 341.851562 56.550781 342.691406 C 54.613281 343.53125 44.136719 338.371094 36.871094 329.011719 C 36.203125 328.15625 35.585938 327.324219 35.011719 326.519531 Z M 35.011719 326.519531 "/><path style=" stroke:none;fill-rule:evenodd;fill:#122032;fill-opacity:0.596;" d="M 272.574219 324.1875 C 272.574219 324.1875 315.210938 244.476562 322.914062 260.210938 C 330.816406 276.382812 346.117188 308.363281 346.785156 310.949219 C 347.363281 313.214844 345.398438 319.65625 338.128906 329.015625 C 330.863281 338.378906 320.386719 343.539062 318.449219 342.699219 C 316.515625 341.851562 272.574219 324.1875 272.574219 324.1875 Z M 277.378906 59.527344 C 274.410156 54.238281 272.578125 50.8125 272.578125 50.8125 C 272.578125 50.8125 316.523438 33.148438 318.449219 32.308594 C 320.386719 31.46875 330.863281 36.628906 338.128906 45.988281 C 338.257812 46.15625 338.386719 46.328125 338.511719 46.484375 C 345.464844 55.574219 347.347656 61.828125 346.785156 64.050781 C 346.117188 66.636719 330.824219 98.617188 322.914062 114.789062 C 316.816406 127.265625 288.75 79.753906 277.378906 59.527344 Z M 28.613281 60.34375 C 29.585938 57.074219 32.070312 52.164062 36.871094 45.988281 C 44.136719 36.628906 54.613281 31.46875 56.550781 32.308594 C 58.027344 32.949219 83.910156 43.371094 96.136719 48.285156 C 97.253906 48.734375 98.25 49.140625 99.105469 49.476562 C 101.183594 50.308594 102.421875 50.8125 102.421875 50.8125 C 102.421875 50.8125 59.773438 130.523438 52.078125 114.789062 C 51.878906 114.375 51.675781 113.953125 51.464844 113.527344 C 43.410156 97.019531 28.859375 66.578125 28.214844 64.050781 C 28.019531 63.285156 28.117188 62.023438 28.613281 60.34375 Z M 35.011719 326.519531 C 29.265625 318.511719 27.691406 313.003906 28.214844 310.949219 C 28.753906 308.859375 38.859375 287.558594 46.882812 270.921875 C 48.789062 266.984375 50.574219 263.308594 52.085938 260.210938 C 59.78125 244.476562 102.425781 324.1875 102.425781 324.1875 C 102.425781 324.1875 58.484375 341.851562 56.550781 342.691406 C 54.613281 343.53125 44.136719 338.371094 36.871094 329.011719 C 36.203125 328.15625 35.585938 327.324219 35.011719 326.519531 Z M 35.011719 326.519531 "/><path style=" stroke:none;fill-rule:evenodd;fill:#122032;fill-opacity:1;" d="M 272.574219 324.1875 C 272.574219 324.1875 315.210938 244.476562 322.914062 260.210938 C 330.816406 276.382812 346.117188 308.363281 346.785156 310.949219 C 347.363281 313.214844 345.398438 319.65625 338.128906 329.015625 C 330.863281 338.378906 320.386719 343.539062 318.449219 342.699219 C 316.515625 341.851562 272.574219 324.1875 272.574219 324.1875 Z M 338.511719 46.484375 C 345.464844 55.574219 347.347656 61.828125 346.785156 64.050781 C 346.117188 66.636719 330.824219 98.617188 322.914062 114.789062 C 316.816406 127.261719 288.75 79.746094 277.378906 59.519531 C 278.390625 58.058594 279.464844 56.578125 280.582031 55.078125 C 282.097656 53.0625 301.492188 60.585938 316.449219 69.082031 C 332.8125 59.566406 336.261719 54.710938 340.671875 51.210938 C 339.898438 49.484375 339.179688 47.917969 338.511719 46.484375 Z M 96.136719 48.285156 C 97.664062 47.796875 99.203125 47.429688 100.753906 47.210938 C 100.199219 47.976562 99.652344 48.726562 99.105469 49.476562 C 73.058594 85.207031 59.136719 103.925781 51.472656 113.535156 C 43.410156 97.019531 28.859375 66.578125 28.214844 64.050781 C 28.019531 63.277344 28.117188 62.023438 28.621094 60.335938 C 34.769531 65.558594 45.578125 73.925781 54.03125 71.871094 C 68.300781 68.414062 81.644531 52.898438 96.136719 48.285156 Z M 46.882812 270.921875 C 48.789062 266.984375 50.574219 263.308594 52.085938 260.210938 C 59.78125 244.476562 102.425781 324.1875 102.425781 324.1875 C 102.425781 324.1875 58.484375 341.851562 56.550781 342.691406 C 54.613281 343.53125 44.136719 338.371094 36.871094 329.011719 C 36.203125 328.15625 35.585938 327.324219 35.011719 326.519531 C 44.121094 318.628906 56.226562 310.386719 57.023438 303.773438 C 57.238281 301.898438 50.617188 285.074219 46.882812 270.921875 Z M 46.882812 270.921875 "/><path style=" stroke:none;fill-rule:evenodd;fill:#5c6b76;fill-opacity:1;" d="M 143.519531 27.300781 C 157.53125 23.460938 172.273438 21.40625 187.5 21.40625 C 279.171875 21.40625 353.59375 95.828125 353.59375 187.5 C 353.59375 279.171875 279.171875 353.59375 187.5 353.59375 C 95.828125 353.59375 21.40625 279.171875 21.40625 187.5 C 21.40625 174.609375 22.875 162.050781 25.664062 150 C 39.390625 90.59375 85.027344 43.34375 143.519531 27.300781 Z M 143.519531 27.300781 "/><path style=" stroke:none;fill-rule:evenodd;fill:#122032;fill-opacity:0.266;" d="M 267.984375 42.195312 C 319.027344 70.550781 353.59375 125.015625 353.59375 187.5 C 353.59375 279.171875 279.171875 353.59375 187.5 353.59375 C 129.523438 353.59375 78.441406 323.828125 48.726562 278.753906 C 75.824219 297.121094 108.914062 307.914062 144.613281 307.914062 C 236.355469 307.914062 310.84375 236.617188 310.84375 148.792969 C 310.835938 107.804688 294.613281 70.417969 267.984375 42.195312 Z M 267.984375 42.195312 "/><path style=" stroke:none;fill-rule:evenodd;fill:#7c919a;fill-opacity:0.318;" d="M 25.65625 150 C 39.390625 90.59375 85.027344 43.34375 143.511719 27.300781 C 200.476562 24.800781 246.960938 79.546875 186.691406 176.324219 C 164.707031 211.621094 96.226562 266.460938 51.976562 224.796875 C 36.097656 209.851562 24.113281 181.734375 25.65625 150 Z M 25.65625 150 "/><path style=" stroke:none;fill-rule:evenodd;fill:#7c919a;fill-opacity:0.301;" d="M 123.710938 162.75 C 162.511719 92.175781 176.835938 96.929688 164.707031 72.113281 C 147.863281 37.628906 42.523438 77.96875 52.597656 158.054688 C 58.648438 206.183594 100.035156 205.824219 123.710938 162.75 Z M 123.710938 162.75 "/><path style=" stroke:none;fill-rule:evenodd;fill:#122032;fill-opacity:0.336;" d="M 206.242188 296.910156 C 211.078125 297.375 243.554688 303.210938 228.765625 317.324219 C 225.765625 320.191406 210.660156 334.605469 177.863281 307.46875 C 170.316406 301.230469 185.484375 294.9375 206.242188 296.910156 Z M 153.246094 240.683594 C 154.996094 242.566406 168.058594 256.679688 162.488281 271.402344 C 157.761719 283.875 140.476562 278.789062 138.898438 277.386719 C 127.273438 267.050781 111.324219 195.421875 153.246094 240.683594 Z M 328.835938 221.949219 C 316.304688 245.4375 288.847656 203.273438 299.585938 193.125 C 323.203125 170.804688 340.515625 200.0625 328.835938 221.949219 Z M 216.113281 186.234375 C 224.496094 203.054688 206.011719 225.496094 174.292969 209.84375 C 162.539062 204.046875 196.664062 147.234375 216.113281 186.234375 Z M 268.003906 162.15625 C 246.015625 181.46875 209.632812 113.414062 217.109375 112.019531 C 249.464844 105.988281 286.515625 145.898438 268.003906 162.15625 Z M 227.128906 77.484375 C 227.429688 82.402344 197.730469 106.613281 156.890625 69.238281 C 152.113281 64.875 225.316406 47.886719 227.128906 77.484375 Z M 81.789062 177.824219 C 101.257812 212.789062 79.738281 241.972656 54.613281 216.269531 C 46.746094 208.222656 58.710938 160.574219 63.089844 155.933594 C 64.671875 154.261719 67.941406 152.960938 81.789062 177.824219 Z M 109.265625 153.21875 C 104.8125 150.832031 144.578125 99.390625 156.757812 105.898438 C 165.113281 110.363281 168.277344 131.445312 159.703125 144.328125 C 150.457031 158.234375 128.40625 163.476562 109.265625 153.21875 Z M 109.265625 153.21875 "/><path style=" stroke:none;fill-rule:evenodd;fill:#5c6b76;fill-opacity:1;" d="M 10.199219 212.949219 L 14.765625 187.5 L 10.199219 162.050781 C 10.199219 162.050781 59.460938 155.160156 66.03125 154.425781 C 66.375 154.386719 66.609375 154.363281 66.699219 154.363281 C 68.601562 154.3125 80.015625 165.457031 80.015625 187.507812 C 80.015625 209.558594 68.601562 220.695312 66.699219 220.648438 C 64.792969 220.589844 10.199219 212.949219 10.199219 212.949219 Z M 161.941406 364.027344 C 161.011719 357.375 154.402344 310.074219 154.359375 308.300781 C 154.304688 306.398438 165.449219 294.984375 187.5 294.984375 C 187.746094 294.984375 187.988281 294.984375 188.234375 294.988281 C 209.796875 295.238281 220.695312 306.421875 220.640625 308.300781 C 220.589844 310.207031 212.953125 364.800781 212.953125 364.800781 L 187.5 360.234375 L 162.050781 364.800781 C 162.050781 364.800781 162.015625 364.53125 161.941406 364.027344 Z M 154.441406 65.886719 C 155.25 58.792969 162.050781 10.199219 162.050781 10.199219 L 187.5 14.765625 L 212.949219 10.199219 C 212.949219 10.199219 220.589844 64.792969 220.636719 66.699219 C 220.6875 68.601562 209.542969 80.015625 187.492188 80.015625 C 165.441406 80.015625 154.304688 68.601562 154.351562 66.699219 C 154.363281 66.585938 154.386719 66.308594 154.441406 65.886719 Z M 295.371094 194.390625 C 295.125 192.226562 294.988281 189.929688 294.988281 187.5 C 294.988281 171.667969 300.878906 161.453125 304.898438 156.976562 C 306.480469 155.21875 307.769531 154.34375 308.300781 154.359375 C 310.207031 154.410156 364.800781 162.046875 364.800781 162.046875 L 360.234375 187.5 L 364.800781 212.949219 C 364.800781 212.949219 310.207031 220.589844 308.300781 220.636719 C 306.613281 220.6875 297.390625 211.867188 295.371094 194.390625 Z M 295.371094 194.390625 "/><path style=" stroke:none;fill-rule:evenodd;fill:#122032;fill-opacity:0.477;" d="M 10.199219 212.949219 L 14.765625 187.5 L 10.199219 162.050781 C 10.199219 162.050781 59.460938 155.160156 66.03125 154.425781 C 66.375 154.386719 66.609375 154.363281 66.699219 154.363281 C 68.601562 154.3125 80.015625 165.457031 80.015625 187.507812 C 80.015625 209.558594 68.601562 220.695312 66.699219 220.648438 C 64.792969 220.589844 10.199219 212.949219 10.199219 212.949219 Z M 161.941406 364.027344 C 161.011719 357.375 154.402344 310.074219 154.359375 308.300781 C 154.304688 306.398438 165.449219 294.984375 187.5 294.984375 C 187.746094 294.984375 187.988281 294.984375 188.234375 294.988281 C 209.796875 295.238281 220.695312 306.421875 220.640625 308.300781 C 220.589844 310.207031 212.953125 364.800781 212.953125 364.800781 L 187.5 360.234375 L 162.050781 364.800781 C 162.050781 364.800781 162.015625 364.53125 161.941406 364.027344 Z M 154.441406 65.886719 C 155.25 58.792969 162.050781 10.199219 162.050781 10.199219 L 187.5 14.765625 L 212.949219 10.199219 C 212.949219 10.199219 220.589844 64.792969 220.636719 66.699219 C 220.6875 68.601562 209.542969 80.015625 187.492188 80.015625 C 165.441406 80.015625 154.304688 68.601562 154.351562 66.699219 C 154.363281 66.585938 154.386719 66.308594 154.441406 65.886719 Z M 295.371094 194.390625 C 295.125 192.226562 294.988281 189.929688 294.988281 187.5 C 294.988281 171.667969 300.878906 161.453125 304.898438 156.976562 C 306.480469 155.21875 307.769531 154.34375 308.300781 154.359375 C 310.207031 154.410156 364.800781 162.046875 364.800781 162.046875 L 360.234375 187.5 L 364.800781 212.949219 C 364.800781 212.949219 310.207031 220.589844 308.300781 220.636719 C 306.613281 220.6875 297.390625 211.867188 295.371094 194.390625 Z M 295.371094 194.390625 "/><path style=" stroke:none;fill-rule:evenodd;fill:#122032;fill-opacity:0.589;" d="M 66.023438 154.425781 C 66.367188 154.386719 66.601562 154.363281 66.691406 154.363281 C 68.59375 154.3125 80.011719 165.457031 80.011719 187.507812 C 80.011719 209.558594 68.59375 220.695312 66.691406 220.648438 C 64.785156 220.597656 10.191406 212.960938 10.191406 212.960938 L 14.023438 191.59375 C 29.730469 190.816406 55.851562 188.707031 61.925781 182.550781 C 65.273438 179.160156 67.523438 172.824219 66.023438 154.425781 Z M 188.234375 294.996094 C 209.796875 295.246094 220.695312 306.425781 220.640625 308.308594 C 220.589844 310.214844 212.953125 364.808594 212.953125 364.808594 L 187.5 360.234375 L 162.050781 364.800781 C 162.050781 364.800781 162.015625 364.53125 161.949219 364.027344 C 182.167969 347.414062 190.996094 344.953125 190.011719 312.898438 C 189.75 304.589844 188.707031 299.003906 188.234375 294.996094 Z M 200.488281 12.433594 L 212.949219 10.199219 C 212.949219 10.199219 220.589844 64.792969 220.636719 66.699219 C 220.6875 68.601562 209.542969 80.015625 187.492188 80.015625 C 165.441406 80.015625 154.304688 68.601562 154.351562 66.699219 C 154.351562 66.59375 154.378906 66.316406 154.433594 65.886719 C 168.847656 65.953125 195.1875 64.492188 199.621094 52.949219 C 203.039062 44.070312 202.175781 27.277344 200.488281 12.433594 Z M 363.914062 166.980469 C 336.359375 163.050781 331.613281 161.863281 304.898438 156.976562 C 306.480469 155.21875 307.769531 154.34375 308.300781 154.359375 C 310.207031 154.410156 364.800781 162.046875 364.800781 162.046875 Z M 360.5625 185.691406 L 360.238281 187.5 L 364.808594 212.949219 C 364.808594 212.949219 310.214844 220.589844 308.308594 220.636719 C 306.613281 220.679688 297.390625 211.859375 295.378906 194.386719 C 310.371094 195.015625 342.140625 195.984375 356.300781 188.300781 C 357.832031 187.476562 359.242188 186.59375 360.5625 185.691406 Z M 360.5625 185.691406 "/><path style=" stroke:none;fill-rule:evenodd;fill:#5c6b76;fill-opacity:1;" d="M 216.800781 253.515625 C 218.101562 248.429688 220.957031 242.316406 226.671875 235.664062 C 231.9375 229.539062 237.75 225.554688 243.261719 223.109375 C 253.613281 218.511719 262.898438 219.316406 265.476562 221.476562 C 269.03125 224.445312 290.773438 257.984375 290.773438 257.984375 L 254.414062 293.152344 C 254.414062 293.152344 218.421875 269.859375 217.214844 267.839844 C 216.472656 266.609375 214.824219 261.253906 216.800781 253.515625 Z M 120.59375 293.144531 L 84.234375 257.976562 C 84.234375 257.976562 105.976562 224.445312 109.53125 221.46875 C 112.800781 218.730469 126.855469 218.175781 140.191406 228.046875 C 142.972656 230.109375 145.726562 232.621094 148.335938 235.65625 C 162.734375 252.421875 159.007812 265.808594 157.800781 267.824219 C 156.585938 269.851562 120.59375 293.144531 120.59375 293.144531 Z M 217.589844 124.132812 C 214.449219 114.976562 216.390625 108.515625 217.199219 107.167969 C 218.414062 105.148438 254.398438 81.855469 254.398438 81.855469 L 290.761719 117.023438 C 290.761719 117.023438 269.015625 150.554688 265.460938 153.53125 C 261.511719 156.839844 241.800781 156.960938 226.65625 139.335938 C 221.917969 133.808594 219.136719 128.640625 217.589844 124.132812 Z M 86.730469 120.847656 C 85.183594 118.492188 84.234375 117.023438 84.234375 117.023438 L 120.59375 81.855469 C 120.59375 81.855469 156.585938 105.148438 157.792969 107.167969 C 158.4375 108.246094 159.800781 112.558594 158.746094 118.90625 C 157.824219 124.441406 155.046875 131.519531 148.335938 139.335938 C 133.191406 156.960938 113.484375 156.839844 109.53125 153.53125 C 106.726562 151.175781 92.542969 129.734375 86.730469 120.847656 Z M 185.625 212.390625 C 171.441406 211.523438 160.085938 200.835938 159.195312 187.5 L 159.136719 187.5 L 159.136719 176.371094 L 160.964844 176.371094 C 165.023438 166.304688 175.378906 159.140625 187.5 159.140625 C 193.738281 159.140625 199.515625 161.039062 204.195312 164.25 C 208.613281 167.28125 212.0625 171.488281 214.035156 176.371094 L 215.863281 176.371094 L 215.863281 187.5 L 215.804688 187.5 C 214.867188 201.421875 202.546875 212.453125 187.5 212.453125 C 186.871094 212.453125 186.246094 212.429688 185.625 212.390625 Z M 185.625 212.390625 "/><path style=" stroke:none;fill-rule:evenodd;fill:#122032;fill-opacity:0.348;" d="M 216.800781 253.515625 C 218.101562 248.429688 220.957031 242.316406 226.671875 235.664062 C 231.9375 229.539062 237.75 225.554688 243.261719 223.109375 C 253.613281 218.511719 262.898438 219.316406 265.476562 221.476562 C 269.03125 224.445312 290.773438 257.984375 290.773438 257.984375 L 254.414062 293.152344 C 254.414062 293.152344 218.421875 269.859375 217.214844 267.839844 C 216.472656 266.609375 214.824219 261.253906 216.800781 253.515625 Z M 120.59375 293.144531 L 84.234375 257.976562 C 84.234375 257.976562 105.976562 224.445312 109.53125 221.46875 C 112.800781 218.730469 126.855469 218.175781 140.191406 228.046875 C 142.972656 230.109375 145.726562 232.621094 148.335938 235.65625 C 162.734375 252.421875 159.007812 265.808594 157.800781 267.824219 C 156.585938 269.851562 120.59375 293.144531 120.59375 293.144531 Z M 217.589844 124.132812 C 214.449219 114.976562 216.390625 108.515625 217.199219 107.167969 C 218.414062 105.148438 254.398438 81.855469 254.398438 81.855469 L 290.761719 117.023438 C 290.761719 117.023438 269.015625 150.554688 265.460938 153.53125 C 261.511719 156.839844 241.800781 156.960938 226.65625 139.335938 C 221.917969 133.808594 219.136719 128.640625 217.589844 124.132812 Z M 86.730469 120.847656 C 85.183594 118.492188 84.234375 117.023438 84.234375 117.023438 L 120.59375 81.855469 C 120.59375 81.855469 156.585938 105.148438 157.792969 107.167969 C 158.4375 108.246094 159.800781 112.558594 158.746094 118.90625 C 157.824219 124.441406 155.046875 131.519531 148.335938 139.335938 C 133.191406 156.960938 113.484375 156.839844 109.53125 153.53125 C 106.726562 151.175781 92.542969 129.734375 86.730469 120.847656 Z M 185.625 212.390625 C 171.441406 211.523438 160.085938 200.835938 159.195312 187.5 L 159.136719 187.5 L 159.136719 176.371094 L 160.964844 176.371094 C 165.023438 166.304688 175.378906 159.140625 187.5 159.140625 C 193.738281 159.140625 199.515625 161.039062 204.195312 164.25 C 208.613281 167.28125 212.0625 171.488281 214.035156 176.371094 L 215.863281 176.371094 L 215.863281 187.5 L 215.804688 187.5 C 214.867188 201.421875 202.546875 212.453125 187.5 212.453125 C 186.871094 212.453125 186.246094 212.429688 185.625 212.390625 Z M 185.625 212.390625 "/><path style=" stroke:none;fill-rule:evenodd;fill:#122032;fill-opacity:0.589;" d="M 243.253906 223.109375 C 253.605469 218.511719 262.890625 219.316406 265.46875 221.476562 C 269.023438 224.445312 290.765625 257.984375 290.765625 257.984375 L 254.40625 293.152344 C 254.40625 293.152344 218.414062 269.859375 217.207031 267.839844 C 216.472656 266.625 214.828125 261.261719 216.800781 253.523438 C 257.894531 278.210938 259.867188 282.433594 269.300781 275.203125 C 282.710938 264.9375 274.492188 261.628906 263.476562 249.015625 C 252.058594 235.941406 250.640625 234.34375 243.253906 223.109375 Z M 105.742188 278.78125 C 106.53125 276.890625 107.632812 275.296875 108.90625 274.261719 C 122.398438 263.363281 144.570312 249.945312 144.59375 241.695312 C 144.601562 239.25 142.304688 233.429688 140.183594 228.050781 C 142.964844 230.113281 145.71875 232.628906 148.328125 235.664062 C 162.726562 252.425781 159 265.816406 157.792969 267.832031 C 156.578125 269.851562 120.59375 293.144531 120.59375 293.144531 Z M 284.144531 110.625 L 290.761719 117.03125 C 290.761719 117.03125 269.015625 150.5625 265.460938 153.539062 C 261.511719 156.847656 241.800781 156.96875 226.65625 139.34375 C 221.910156 133.816406 219.128906 128.65625 217.582031 124.140625 C 256.191406 155.039062 264.488281 120.367188 282.554688 110.722656 C 282.832031 110.574219 283.394531 110.535156 284.144531 110.625 Z M 86.730469 120.847656 C 87.277344 119.355469 87.984375 118.042969 88.84375 116.949219 C 91.523438 113.550781 115.6875 89.460938 120.050781 91.882812 C 123.128906 93.59375 150.488281 108.78125 158.746094 118.898438 C 157.824219 124.433594 155.046875 131.511719 148.335938 139.328125 C 133.191406 156.953125 113.484375 156.832031 109.53125 153.523438 C 106.726562 151.175781 92.542969 129.734375 86.730469 120.847656 Z M 185.625 212.390625 C 199.6875 201.914062 187.417969 167.078125 203.308594 164.386719 C 203.609375 164.332031 203.902344 164.289062 204.195312 164.25 C 208.613281 167.28125 212.0625 171.488281 214.035156 176.371094 L 215.863281 176.371094 L 215.863281 187.5 L 215.804688 187.5 C 214.867188 201.421875 202.546875 212.453125 187.5 212.453125 C 186.871094 212.453125 186.246094 212.429688 185.625 212.390625 Z M 185.625 212.390625 "/><path style=" stroke:none;fill-rule:evenodd;fill:#7c919a;fill-opacity:1;" d="M 187.5 0 C 201.546875 0 212.949219 4.566406 212.949219 10.199219 C 212.949219 15.824219 201.546875 20.390625 187.5 20.390625 C 173.453125 20.390625 162.050781 15.824219 162.050781 10.199219 C 162.050781 4.566406 173.453125 0 187.5 0 Z M 187.5 0 "/><path style=" stroke:none;fill-rule:evenodd;fill:#7c919a;fill-opacity:1;" d="M 0 187.5 C 0 173.453125 4.566406 162.050781 10.199219 162.050781 C 15.824219 162.050781 20.398438 173.453125 20.398438 187.5 C 20.398438 201.546875 15.832031 212.949219 10.199219 212.949219 C 4.566406 212.949219 0 201.546875 0 187.5 Z M 0 187.5 "/><path style=" stroke:none;fill-rule:evenodd;fill:#5c6b76;fill-opacity:1;" d="M 187.5 375 C 173.453125 375 162.050781 370.433594 162.050781 364.808594 C 162.050781 359.183594 173.453125 354.609375 187.5 354.609375 C 201.546875 354.609375 212.949219 359.175781 212.949219 364.808594 C 212.949219 370.433594 201.546875 375 187.5 375 Z M 187.5 375 "/><path style=" stroke:none;fill-rule:evenodd;fill:#5c6b76;fill-opacity:1;" d="M 375 187.5 C 375 201.546875 370.433594 212.949219 364.800781 212.949219 C 359.175781 212.949219 354.609375 201.546875 354.609375 187.5 C 354.609375 173.453125 359.175781 162.050781 364.800781 162.050781 C 370.433594 162.050781 375 173.453125 375 187.5 Z M 375 187.5 "/><path style=" stroke:none;fill-rule:evenodd;fill:#7c919a;fill-opacity:1;" d="M 253.453125 82.664062 C 259.28125 76.949219 272.015625 80.476562 281.878906 90.53125 C 291.742188 100.589844 295.027344 113.390625 289.199219 119.109375 C 283.371094 124.824219 270.636719 121.296875 260.773438 111.238281 C 250.914062 101.183594 247.628906 88.378906 253.453125 82.664062 Z M 253.453125 82.664062 "/><path style=" stroke:none;fill-rule:evenodd;fill:#5c6b76;fill-opacity:0.292;" d="M 253.453125 82.664062 C 259.28125 76.949219 272.015625 80.476562 281.878906 90.53125 C 291.742188 100.589844 295.027344 113.390625 289.199219 119.109375 C 283.371094 124.824219 270.636719 121.296875 260.773438 111.238281 C 250.914062 101.183594 247.628906 88.378906 253.453125 82.664062 Z M 253.453125 82.664062 "/><path style=" stroke:none;fill-rule:evenodd;fill:#5c6b76;fill-opacity:1;" d="M 253.453125 292.335938 C 247.628906 286.621094 250.914062 273.816406 260.773438 263.761719 C 270.636719 253.710938 283.378906 250.183594 289.199219 255.890625 C 295.027344 261.609375 291.742188 274.410156 281.878906 284.460938 C 272.011719 294.523438 259.273438 298.050781 253.453125 292.335938 Z M 253.453125 292.335938 "/><path style=" stroke:none;fill-rule:evenodd;fill:#7c919a;fill-opacity:0.451;" d="M 253.453125 292.335938 C 247.628906 286.621094 250.914062 273.816406 260.773438 263.761719 C 270.636719 253.710938 283.378906 250.183594 289.199219 255.890625 C 295.027344 261.609375 291.742188 274.410156 281.878906 284.460938 C 272.011719 294.523438 259.273438 298.050781 253.453125 292.335938 Z M 253.453125 292.335938 "/><path style=" stroke:none;fill-rule:evenodd;fill:#7c919a;fill-opacity:1;" d="M 121.546875 82.664062 C 127.371094 88.378906 124.085938 101.183594 114.226562 111.234375 C 104.363281 121.289062 91.621094 124.808594 85.800781 119.101562 C 79.972656 113.386719 83.257812 100.582031 93.121094 90.523438 C 102.984375 80.476562 115.726562 76.957031 121.546875 82.664062 Z M 121.546875 82.664062 "/><path style=" stroke:none;fill-rule:evenodd;fill:#7c919a;fill-opacity:1;" d="M 121.546875 292.335938 C 115.71875 298.050781 102.984375 294.523438 93.121094 284.46875 C 83.257812 274.417969 79.972656 261.613281 85.800781 255.898438 C 91.628906 250.183594 104.363281 253.710938 114.226562 263.765625 C 124.085938 273.816406 127.371094 286.621094 121.546875 292.335938 Z M 121.546875 292.335938 "/><path style=" stroke:none;fill-rule:evenodd;fill:#5c6b76;fill-opacity:0.292;" d="M 121.546875 292.335938 C 115.71875 298.050781 102.984375 294.523438 93.121094 284.46875 C 83.257812 274.417969 79.972656 261.613281 85.800781 255.898438 C 91.628906 250.183594 104.363281 253.710938 114.226562 263.765625 C 124.085938 273.816406 127.371094 286.621094 121.546875 292.335938 Z M 121.546875 292.335938 "/><path style=" stroke:none;fill-rule:nonzero;fill:#7c919a;fill-opacity:1;" d="M 215.863281 176.371094 C 215.863281 177.230469 215.820312 178.085938 215.726562 178.945312 C 215.636719 179.800781 215.5 180.648438 215.320312 181.492188 C 215.140625 182.335938 214.914062 183.167969 214.644531 183.992188 C 214.375 184.816406 214.0625 185.625 213.707031 186.417969 C 213.351562 187.210938 212.953125 187.988281 212.515625 188.746094 C 212.078125 189.507812 211.601562 190.242188 211.085938 190.957031 C 210.570312 191.671875 210.015625 192.363281 209.425781 193.027344 C 208.835938 193.691406 208.214844 194.328125 207.558594 194.9375 C 206.898438 195.546875 206.210938 196.121094 205.496094 196.667969 C 204.777344 197.210938 204.03125 197.722656 203.257812 198.203125 C 202.484375 198.679688 201.691406 199.121094 200.871094 199.527344 C 200.050781 199.933594 199.214844 200.300781 198.355469 200.628906 C 197.496094 200.957031 196.621094 201.246094 195.734375 201.496094 C 194.84375 201.746094 193.945312 201.957031 193.035156 202.121094 C 192.121094 202.289062 191.203125 202.417969 190.28125 202.5 C 189.355469 202.585938 188.429688 202.628906 187.5 202.628906 C 186.570312 202.628906 185.644531 202.585938 184.71875 202.5 C 183.796875 202.417969 182.878906 202.289062 181.964844 202.121094 C 181.054688 201.957031 180.15625 201.746094 179.265625 201.496094 C 178.378906 201.246094 177.503906 200.957031 176.644531 200.628906 C 175.785156 200.300781 174.949219 199.933594 174.128906 199.527344 C 173.308594 199.121094 172.511719 198.679688 171.742188 198.203125 C 170.96875 197.722656 170.222656 197.210938 169.503906 196.667969 C 168.789062 196.121094 168.101562 195.546875 167.441406 194.9375 C 166.785156 194.328125 166.164062 193.691406 165.574219 193.027344 C 164.984375 192.363281 164.429688 191.671875 163.914062 190.957031 C 163.398438 190.242188 162.921875 189.507812 162.484375 188.746094 C 162.046875 187.988281 161.648438 187.210938 161.292969 186.417969 C 160.9375 185.625 160.625 184.816406 160.355469 183.992188 C 160.085938 183.167969 159.859375 182.335938 159.679688 181.492188 C 159.5 180.648438 159.363281 179.800781 159.273438 178.945312 C 159.179688 178.085938 159.136719 177.230469 159.136719 176.371094 C 159.136719 175.511719 159.179688 174.652344 159.273438 173.796875 C 159.363281 172.941406 159.5 172.089844 159.679688 171.246094 C 159.859375 170.402344 160.085938 169.570312 160.355469 168.746094 C 160.625 167.925781 160.9375 167.117188 161.292969 166.320312 C 161.648438 165.527344 162.046875 164.75 162.484375 163.992188 C 162.921875 163.234375 163.398438 162.496094 163.914062 161.78125 C 164.429688 161.066406 164.984375 160.378906 165.574219 159.710938 C 166.164062 159.046875 166.785156 158.410156 167.441406 157.804688 C 168.101562 157.195312 168.789062 156.617188 169.503906 156.074219 C 170.222656 155.527344 170.96875 155.015625 171.742188 154.539062 C 172.511719 154.058594 173.308594 153.617188 174.128906 153.214844 C 174.949219 152.808594 175.785156 152.441406 176.644531 152.109375 C 177.503906 151.78125 178.378906 151.492188 179.265625 151.242188 C 180.15625 150.992188 181.054688 150.785156 181.964844 150.617188 C 182.878906 150.449219 183.796875 150.324219 184.71875 150.238281 C 185.644531 150.15625 186.570312 150.113281 187.5 150.113281 C 188.429688 150.113281 189.355469 150.15625 190.28125 150.238281 C 191.203125 150.324219 192.121094 150.449219 193.035156 150.617188 C 193.945312 150.785156 194.84375 150.992188 195.734375 151.242188 C 196.621094 151.492188 197.496094 151.78125 198.355469 152.109375 C 199.214844 152.441406 200.050781 152.808594 200.871094 153.214844 C 201.691406 153.617188 202.484375 154.058594 203.257812 154.539062 C 204.03125 155.015625 204.777344 155.527344 205.496094 156.074219 C 206.210938 156.617188 206.898438 157.195312 207.558594 157.804688 C 208.214844 158.410156 208.835938 159.046875 209.425781 159.710938 C 210.015625 160.378906 210.570312 161.066406 211.085938 161.78125 C 211.601562 162.496094 212.078125 163.234375 212.515625 163.992188 C 212.953125 164.75 213.351562 165.527344 213.707031 166.320312 C 214.0625 167.117188 214.375 167.925781 214.644531 168.746094 C 214.914062 169.570312 215.140625 170.402344 215.320312 171.246094 C 215.5 172.089844 215.636719 172.941406 215.726562 173.796875 C 215.820312 174.652344 215.863281 175.511719 215.863281 176.371094 Z M 215.863281 176.371094 "/></g></svg>