<svg xmlns="http://www.w3.org/2000/svg" xmlns:xlink="http://www.w3.org/1999/xlink" width="500" zoomAndPan="magnify" viewBox="0 0 375 374.999991" height="500" preserveAspectRatio="xMidYMid meet" version="1.2"><defs><clipPath id="7bf69ea221"><path d="M 0 83.4375 L 375 83.4375 L 375 291.9375 L 0 291.9375 Z M 0 83.4375 "/></clipPath></defs><g id="108f68254f"><path style=" stroke:none;fill-rule:nonzero;fill:#ffffff;fill-opacity:1;" d="M 137.679688 186.636719 L 136.085938 184.515625 C 135.269531 183.425781 134.429688 182.308594 133.613281 181.203125 L 133.351562 180.839844 L 132.886719 180.878906 C 122.636719 181.882812 113.214844 183.113281 104.117188 184.628906 L 103.878906 184.679688 L 103.703125 184.84375 C 102.675781 185.796875 101.632812 186.761719 100.566406 187.714844 L 100.054688 188.191406 L 100.441406 188.769531 C 100.96875 189.546875 101.507812 190.351562 102.011719 191.128906 L 102.300781 191.578125 L 102.828125 191.480469 C 113.515625 189.535156 124.769531 187.964844 136.273438 186.789062 L 137.679688 186.636719 "/><path style=" stroke:none;fill-rule:nonzero;fill:#ffffff;fill-opacity:1;" d="M 100.417969 179.160156 L 100.128906 178.28125 C 96.363281 167.242188 94.132812 155.648438 93.480469 143.828125 L 93.441406 143.125 L 92.75 143.0625 C 91.285156 142.925781 89.828125 142.777344 88.359375 142.613281 L 85.1875 142.285156 L 85.300781 143.265625 C 86.328125 152.863281 87.847656 162.535156 89.789062 171.984375 L 89.890625 172.257812 C 91.472656 174.769531 93.039062 177.253906 94.632812 179.738281 L 94.921875 180.1875 L 100.417969 179.160156 "/><g clip-rule="nonzero" clip-path="url(#7bf69ea221)"><path style=" stroke:none;fill-rule:nonzero;fill:#ffffff;fill-opacity:1;" d="M 340.863281 253.832031 L 340.601562 254.058594 C 340.171875 254.597656 339.484375 254.9375 338.707031 254.988281 L 336.910156 255.828125 C 336.195312 256.191406 335.480469 256.554688 334.804688 256.921875 C 332.457031 258.148438 330.011719 259.292969 327.589844 260.433594 L 327.328125 260.546875 L 327.199219 260.820312 C 326.761719 261.761719 325.785156 261.710938 325.382812 261.648438 L 325.144531 261.613281 L 324.917969 261.710938 C 321.628906 263.191406 318.242188 264.597656 314.753906 265.941406 C 308.40625 260.507812 302.144531 254.914062 295.960938 249.242188 C 299.710938 244.234375 303.375 239.179688 306.863281 234.011719 C 309.347656 230.335938 311.71875 226.570312 314.078125 222.808594 C 319.195312 228.84375 324.527344 234.726562 330 240.433594 C 329.347656 246.082031 328.65625 251.363281 327.929688 256.480469 L 327.714844 257.949219 L 329.058594 257.320312 C 329.382812 257.171875 329.722656 257.03125 330.113281 256.855469 C 331.878906 256.003906 333.949219 255.050781 336.144531 254.035156 L 336.609375 253.820312 L 336.609375 253.003906 C 338.679688 233.699219 339.996094 214.175781 340.5625 194.605469 L 355.304688 201.980469 C 355.582031 207.261719 355.929688 212.167969 356.320312 216.496094 C 353.421875 213.863281 349.945312 211.191406 345.71875 208.503906 L 344.550781 207.765625 L 344.488281 209.144531 C 344.351562 211.589844 344.199219 214.023438 344.050781 216.507812 L 344.023438 217.011719 L 344.464844 217.261719 C 349.132812 219.785156 353.910156 222.730469 356.484375 228.390625 C 362.441406 241.5 352.492188 247.898438 340.863281 253.832031 Z M 277.492188 276.667969 C 276.789062 275.976562 276.0625 275.261719 275.296875 274.496094 C 281.808594 267.183594 288.042969 259.605469 293.992188 251.800781 C 299.6875 257.019531 305.445312 262.152344 311.28125 267.171875 C 300.90625 270.945312 289.675781 274.109375 277.492188 276.667969 Z M 228.652344 283.46875 L 228.449219 283.65625 C 228.300781 283.792969 228.0625 283.945312 227.734375 283.855469 C 228.652344 282.867188 229.566406 281.863281 230.496094 280.859375 C 231.460938 281.585938 232.441406 282.300781 233.417969 283.027344 C 231.902344 283.167969 230.457031 283.328125 228.925781 283.457031 Z M 191.289062 285.261719 C 191.679688 284.558594 191.515625 283.667969 190.835938 283.191406 C 186.847656 280.332031 182.933594 277.382812 179.054688 274.371094 C 186.105469 268.175781 192.96875 261.800781 199.757812 255.363281 C 201.664062 257.121094 203.410156 258.675781 204.902344 260.007812 C 212.328125 266.542969 220.042969 272.878906 227.921875 278.914062 C 226.417969 280.558594 224.914062 282.199219 223.394531 283.84375 C 212.503906 284.585938 201.664062 285.011719 191.289062 285.261719 Z M 166.335938 285.601562 C 166.195312 285.601562 166.070312 285.601562 165.945312 285.601562 C 169.507812 282.589844 173.058594 279.566406 176.574219 276.503906 C 180.4375 279.515625 184.363281 282.464844 188.339844 285.335938 C 180.648438 285.5 173.246094 285.5625 166.335938 285.601562 Z M 61.410156 268.335938 C 66.804688 265.050781 72.125 261.636719 77.382812 258.113281 L 92.289062 277.996094 C 85.1875 276.328125 78.347656 274.382812 71.738281 272.152344 C 68.363281 271.007812 64.925781 269.742188 61.410156 268.335938 Z M 49.429688 263.144531 L 49.230469 263.003906 C 44.109375 260.621094 39.53125 258.273438 35.191406 255.828125 C 27.121094 251.261719 19.507812 246.933594 16.320312 237.773438 C 13.511719 229.707031 17.6875 222.394531 29.066406 215.441406 L 29.53125 215.167969 L 29.445312 214.628906 C 29.320312 213.847656 29.191406 213.070312 29.066406 212.292969 C 28.867188 211.125 28.679688 209.984375 28.515625 208.816406 L 28.339844 207.613281 L 27.296875 208.242188 C 17.035156 214.527344 10.886719 221.453125 8.855469 228.980469 C 8.027344 218.566406 8.402344 198.730469 9.054688 183.335938 L 33.207031 209.898438 C 35.414062 224.925781 38.390625 239.859375 42.128906 254.613281 C 42.265625 255.152344 42.242188 255.628906 42.066406 255.992188 L 41.714844 256.707031 L 42.417969 257.058594 C 44.023438 257.875 45.628906 258.664062 47.222656 259.429688 L 48.601562 260.082031 L 48.363281 258.578125 C 46.910156 249.167969 45.578125 239.71875 44.335938 230.246094 C 46.910156 228.289062 49.480469 226.308594 52.039062 224.324219 L 75.449219 255.539062 C 69.628906 259.429688 63.757812 263.230469 57.773438 266.820312 C 55.300781 265.789062 52.804688 264.710938 50.269531 263.542969 C 49.894531 263.457031 49.617188 263.320312 49.429688 263.144531 Z M 355.152344 160.140625 L 340.5625 149.714844 C 340.410156 144.496094 340.210938 139.289062 339.960938 134.082031 L 339.910156 133.128906 L 337.539062 133.65625 C 336.285156 133.929688 335.042969 134.207031 333.789062 134.445312 L 333.097656 134.570312 L 333.136719 135.273438 C 333.285156 137.945312 333.398438 140.628906 333.511719 143.316406 C 326.234375 154.34375 318.769531 165.285156 311.066406 176.085938 C 303.539062 168.570312 297.027344 160.078125 291.632812 150.605469 C 294.378906 147.027344 297.128906 143.429688 299.613281 140.066406 L 299.625 140.429688 C 299.902344 147.003906 299.8125 153.691406 299.347656 160.328125 L 299.335938 160.617188 L 299.5 160.84375 C 301.34375 163.425781 303.125 165.796875 304.945312 168.09375 L 306.125 169.585938 L 306.375 167.703125 C 307.527344 158.621094 308.117188 149.148438 308.117188 139.5625 L 308.117188 138.660156 L 299.925781 139.652344 C 301.253906 137.832031 302.535156 136.0625 303.640625 134.457031 C 317.640625 132.738281 329.257812 130.78125 339.859375 128.324219 C 340.9375 128.070312 342.257812 127.808594 343.960938 127.46875 C 348.769531 126.527344 355.117188 125.25 360.75 123.140625 C 357.601562 133.339844 355.90625 146.464844 355.152344 160.140625 Z M 345.40625 192.246094 L 354.691406 178.34375 C 354.675781 185.230469 354.839844 191.980469 355.117188 198.292969 L 344.328125 192.898438 C 344.753906 192.820312 345.15625 192.632812 345.40625 192.246094 Z M 340.652344 153.714844 L 354.976562 163.953125 C 354.863281 166.789062 354.789062 169.625 354.738281 172.472656 L 342.746094 190.464844 C 342.40625 190.964844 342.40625 191.566406 342.65625 192.058594 L 340.652344 191.054688 C 340.953125 178.621094 340.953125 166.160156 340.652344 153.714844 Z M 310 212.832031 C 306.160156 208.066406 302.472656 203.160156 298.871094 198.203125 C 299.136719 197.851562 299.398438 197.5 299.648438 197.152344 L 301.355469 197.675781 C 301.894531 197.839844 302.421875 198.003906 302.9375 198.167969 C 308.621094 200.0625 314.464844 202.371094 320.789062 205.230469 C 318.507812 209.308594 316.148438 213.347656 313.714844 217.335938 C 312.472656 215.84375 311.21875 214.351562 310 212.832031 Z M 274.871094 229.144531 C 282.335938 219.871094 289.675781 210.449219 296.863281 200.902344 C 300.316406 205.617188 303.839844 210.285156 307.492188 214.839844 C 308.945312 216.648438 310.4375 218.429688 311.917969 220.222656 C 309.410156 224.261719 306.863281 228.277344 304.203125 232.203125 C 300.804688 237.246094 297.226562 242.191406 293.578125 247.070312 C 287.230469 241.199219 280.992188 235.214844 274.871094 229.144531 Z M 254.496094 253.695312 C 259.125 248.277344 263.730469 242.816406 268.234375 237.335938 C 269.777344 235.453125 271.296875 233.546875 272.839844 231.652344 C 278.972656 237.75 285.246094 243.734375 291.621094 249.628906 C 285.710938 257.398438 279.5 264.949219 273.015625 272.226562 C 267.945312 267.207031 261.660156 260.921875 254.496094 253.695312 Z M 273.140625 276.882812 C 273.339844 277.082031 273.515625 277.246094 273.703125 277.445312 C 273.265625 277.535156 272.839844 277.621094 272.386719 277.710938 C 272.636719 277.433594 272.890625 277.15625 273.140625 276.882812 Z M 226.054688 229.207031 C 233.894531 237.3125 241.785156 245.414062 249.792969 253.507812 C 249.90625 253.621094 250.015625 253.734375 250.128906 253.847656 C 243.554688 261.5 236.867188 269.078125 230.09375 276.53125 C 222.203125 270.496094 214.472656 264.148438 207.035156 257.597656 C 205.578125 256.316406 203.898438 254.8125 202.066406 253.132812 C 210.246094 245.316406 218.277344 237.359375 226.054688 229.207031 Z M 176.03125 227.136719 C 184.714844 218.792969 192.917969 210.648438 200.660156 202.65625 C 208.277344 210.710938 216.003906 218.792969 223.820312 226.882812 C 215.992188 235.089844 207.925781 243.082031 199.707031 250.949219 C 193.320312 245.015625 185.179688 237.007812 176.03125 227.136719 Z M 150.964844 250.21875 C 156.914062 244.988281 162.785156 239.683594 168.53125 234.273438 C 170.273438 232.617188 171.992188 230.988281 173.699219 229.355469 C 182.84375 239.21875 190.988281 247.210938 197.398438 253.179688 C 190.546875 259.679688 183.609375 266.078125 176.507812 272.339844 C 167.652344 265.339844 159.121094 257.972656 150.964844 250.21875 Z M 124.355469 272.589844 C 124.40625 272.640625 124.441406 272.691406 124.492188 272.742188 C 128.21875 276.753906 132.097656 280.632812 136.035156 284.445312 C 127.804688 283.832031 119.976562 282.964844 112.472656 281.824219 C 116.464844 278.789062 120.429688 275.726562 124.355469 272.589844 Z M 100.003906 242.066406 C 106.363281 251.148438 113.441406 260.484375 122.210938 270.207031 C 117.554688 273.921875 112.851562 277.558594 108.109375 281.148438 C 104.371094 280.519531 100.695312 279.828125 97.105469 279.0625 L 80.042969 256.316406 C 86.816406 251.726562 93.492188 247.007812 100.003906 242.066406 Z M 72.074219 208.667969 C 73.304688 207.6875 74.507812 206.734375 75.714844 205.769531 C 79.015625 210.953125 82.363281 216.09375 85.800781 221.164062 C 87.320312 223.398438 88.824219 225.644531 90.332031 227.886719 C 92.890625 231.703125 95.472656 235.542969 98.160156 239.429688 C 91.636719 244.386719 84.921875 249.128906 78.109375 253.746094 L 54.585938 222.367188 C 60.445312 217.828125 66.304688 213.257812 72.074219 208.667969 Z M 41.289062 204.652344 C 40.347656 195.996094 39.492188 187.339844 38.742188 178.683594 L 52.765625 167.128906 C 57.484375 175.722656 62.402344 184.203125 67.484375 192.570312 C 63.46875 193.664062 59.378906 194.855469 55.328125 196.109375 C 52.367188 197.050781 49.054688 198.191406 45.765625 199.421875 L 45.1875 199.632812 L 46.054688 207.375 L 47.019531 207 C 48.214844 206.535156 49.34375 206.121094 50.410156 205.71875 L 52.527344 204.917969 C 58.210938 202.832031 64.234375 200.875 70.945312 198.933594 L 71.308594 198.832031 C 72.1875 200.25 73.078125 201.640625 73.96875 203.046875 C 72.691406 204.074219 71.398438 205.105469 70.070312 206.160156 C 64.320312 210.726562 58.5 215.28125 52.667969 219.796875 Z M 41.976562 210.902344 L 50.109375 221.753906 C 48.023438 223.371094 45.941406 224.976562 43.859375 226.570312 C 43.195312 221.351562 42.566406 216.132812 41.976562 210.902344 Z M 9.28125 178.34375 L 24.5 163.113281 L 29.082031 167.691406 C 29.707031 179.949219 30.847656 192.167969 32.46875 204.328125 L 9.257812 178.78125 C 9.257812 178.632812 9.269531 178.480469 9.28125 178.34375 Z M 10.035156 165.921875 C 10.386719 161.832031 10.585938 155.910156 10.523438 149.136719 L 22.230469 160.84375 L 9.519531 173.550781 C 9.695312 170.503906 9.871094 167.894531 10.035156 165.921875 Z M 284.695312 136.488281 C 289.636719 136.027344 294.519531 135.523438 299.347656 134.972656 C 296.613281 138.785156 293.3125 143.140625 289.964844 147.503906 C 288.070312 143.953125 286.289062 140.304688 284.695312 136.488281 Z M 264.933594 219.144531 C 259.816406 213.863281 254.785156 208.46875 249.804688 203.023438 C 253.933594 198.265625 257.984375 193.472656 261.972656 188.644531 L 262.902344 188.78125 C 273.378906 190.363281 283.378906 192.484375 292.660156 195.066406 C 293.402344 196.109375 294.140625 197.152344 294.882812 198.191406 C 287.59375 207.878906 280.164062 217.4375 272.585938 226.847656 C 270.027344 224.289062 267.445312 221.742188 264.933594 219.144531 Z M 252.074219 251.25 C 244.058594 243.132812 236.128906 235.003906 228.273438 226.871094 C 234.910156 219.859375 241.347656 212.707031 247.683594 205.457031 C 252.601562 210.839844 257.570312 216.15625 262.625 221.378906 C 265.234375 224.0625 267.90625 226.710938 270.554688 229.367188 C 268.949219 231.339844 267.367188 233.332031 265.75 235.304688 C 261.320312 240.699219 256.792969 246.066406 252.226562 251.414062 C 252.175781 251.351562 252.125 251.300781 252.074219 251.25 Z M 152.621094 199.984375 C 151.933594 199.121094 151.28125 198.21875 150.589844 197.351562 C 154.71875 193.222656 158.78125 189.046875 162.746094 184.878906 C 168.59375 184.804688 173.8125 185.117188 178.59375 185.871094 C 179.695312 186.035156 180.789062 186.136719 181.878906 186.234375 L 184.652344 186.5 L 183.320312 184.980469 C 182.582031 184.140625 181.839844 183.3125 181.113281 182.496094 C 180.375 181.667969 179.644531 180.839844 178.90625 180.011719 L 178.707031 179.773438 L 178.390625 179.75 C 175.09375 179.371094 171.679688 179.160156 168.242188 179.046875 C 169.984375 177.175781 171.703125 175.296875 173.398438 173.449219 C 173.613281 173.664062 173.835938 173.914062 174.039062 174.140625 L 179.09375 179.597656 C 185.441406 186.460938 191.917969 193.386719 198.453125 200.324219 C 190.722656 208.304688 182.53125 216.445312 173.851562 224.777344 C 167.164062 217.460938 160 209.183594 152.621094 199.984375 Z M 124.355469 222.140625 C 132.246094 215.152344 140.351562 207.511719 148.292969 199.632812 C 148.90625 200.414062 149.496094 201.214844 150.113281 201.992188 C 157.550781 211.277344 164.777344 219.621094 171.527344 226.996094 C 169.808594 228.640625 168.089844 230.285156 166.320312 231.941406 C 160.550781 237.386719 154.628906 242.71875 148.644531 248 C 140.136719 239.769531 132.035156 231.136719 124.355469 222.140625 Z M 113.839844 231.136719 C 116.5 228.953125 119.210938 226.632812 121.933594 224.25 C 129.625 233.246094 137.703125 241.878906 146.210938 250.109375 C 139.160156 256.253906 131.996094 262.289062 124.707031 268.160156 C 115.949219 258.488281 108.898438 249.167969 102.539062 240.097656 C 106.351562 237.160156 110.140625 234.1875 113.839844 231.136719 Z M 95.710938 189.660156 C 100.742188 197.164062 106 204.503906 111.558594 211.617188 C 114.253906 215.066406 117.015625 218.464844 119.839844 221.828125 C 117.128906 224.1875 114.445312 226.484375 111.808594 228.652344 C 108.171875 231.652344 104.445312 234.5625 100.695312 237.449219 C 98.058594 233.632812 95.511719 229.84375 93.003906 226.105469 C 91.484375 223.847656 89.980469 221.601562 88.460938 219.355469 C 84.972656 214.214844 81.585938 209.007812 78.234375 203.75 C 84.546875 198.707031 90.378906 194 95.710938 189.660156 Z M 74.507812 197.914062 L 74.734375 197.851562 C 77.359375 197.125 80.167969 196.421875 83.140625 195.695312 C 80.984375 197.4375 78.773438 199.207031 76.492188 201.027344 C 75.839844 199.984375 75.160156 198.957031 74.507812 197.914062 Z M 72.816406 150.617188 C 79.089844 162.960938 86.027344 174.96875 93.617188 186.535156 C 86.191406 187.964844 78.738281 189.636719 71.421875 191.542969 L 70.734375 191.71875 C 65.386719 182.960938 60.230469 174.066406 55.289062 165.058594 Z M 37.199219 129.640625 C 37.183594 129.628906 37.171875 129.613281 37.160156 129.589844 C 37.800781 129.714844 38.464844 129.839844 39.054688 129.980469 C 48.277344 132.011719 57.796875 133.765625 67.484375 135.222656 C 67.382812 135.246094 67.28125 135.246094 67.183594 135.296875 C 66.378906 135.660156 66.027344 136.617188 66.40625 137.429688 C 67.984375 140.867188 69.628906 144.292969 71.324219 147.695312 L 53.734375 162.183594 C 47.925781 151.46875 42.390625 140.617188 37.199219 129.640625 Z M 263.117188 138.285156 C 270.003906 137.808594 276.726562 137.242188 283.363281 136.628906 L 281.570312 137.367188 C 283.441406 141.859375 285.535156 146.164062 287.804688 150.316406 C 285.636719 153.152344 283.539062 155.886719 281.757812 158.28125 C 280.203125 160.378906 278.558594 162.433594 276.980469 164.519531 C 272.035156 155.972656 267.40625 147.21875 263.117188 138.285156 Z M 276.613281 170.25 C 279.953125 175.847656 283.402344 181.378906 286.992188 186.789062 C 280.441406 185.292969 273.652344 183.976562 266.652344 182.910156 C 270.027344 178.734375 273.339844 174.503906 276.613281 170.25 Z M 262.953125 182.371094 L 262.273438 182.285156 C 252.300781 180.941406 241.722656 179.976562 229.917969 179.335938 L 229.050781 179.285156 C 227.972656 178.003906 226.917969 176.710938 225.867188 175.421875 C 236.882812 162.886719 246.730469 150.703125 255.511719 138.785156 C 256.890625 138.699219 258.273438 138.609375 259.652344 138.523438 C 264.332031 148.332031 269.402344 157.929688 274.847656 167.289062 C 270.957031 172.359375 266.992188 177.390625 262.953125 182.371094 Z M 234.558594 185.769531 C 242.691406 186.335938 250.644531 187.125 258.234375 188.140625 C 254.746094 192.34375 251.210938 196.511719 247.621094 200.636719 C 243.203125 195.746094 238.851562 190.789062 234.558594 185.769531 Z M 202.894531 200.335938 C 207.886719 195.167969 212.667969 190.0625 217.273438 185.003906 C 218.777344 184.980469 220.296875 184.96875 221.800781 185.042969 C 223.832031 185.132812 225.828125 185.246094 227.859375 185.355469 L 230.09375 185.484375 C 235.136719 191.429688 240.269531 197.300781 245.5 203.085938 C 239.152344 210.347656 232.691406 217.523438 226.042969 224.5625 C 218.226562 216.472656 210.496094 208.390625 202.894531 200.335938 Z M 123.917969 165.921875 C 130.992188 176.601562 138.457031 187 146.324219 197.074219 C 138.332031 204.992188 130.1875 212.695312 122.246094 219.707031 C 119.476562 216.394531 116.753906 213.046875 114.09375 209.632812 C 108.523438 202.507812 103.242188 195.144531 98.210938 187.617188 C 108.921875 178.84375 117.519531 171.59375 123.917969 165.921875 Z M 88.148438 137.996094 C 88.210938 137.945312 88.234375 137.894531 88.273438 137.84375 C 94.695312 138.523438 101.28125 139.097656 108.058594 139.589844 C 107.957031 139.976562 108.007812 140.390625 108.222656 140.769531 C 112.625 148.371094 117.316406 155.835938 122.132812 163.214844 C 115.785156 168.832031 107.128906 176.148438 96.402344 184.929688 C 88.710938 173.210938 81.6875 161.054688 75.363281 148.523438 Z M 76.917969 136.539062 C 79.214844 136.828125 81.535156 137.105469 83.855469 137.367188 L 73.855469 145.597656 C 72.300781 142.449219 70.785156 139.273438 69.316406 136.074219 C 69.175781 135.761719 68.925781 135.550781 68.652344 135.386719 C 71.398438 135.789062 74.160156 136.1875 76.917969 136.539062 Z M 199.921875 142.109375 C 200.210938 141.734375 200.523438 141.332031 200.8125 140.957031 C 208.175781 140.78125 215.265625 140.566406 221.875 140.355469 C 232.027344 140.039062 241.8125 139.601562 251.320312 139.050781 C 243.105469 150.078125 233.945312 161.34375 223.796875 172.910156 C 215.554688 162.847656 207.585938 152.5625 199.921875 142.109375 Z M 143.878906 141.183594 C 144.027344 141.359375 144.191406 141.519531 144.339844 141.695312 C 138.945312 147.242188 133.4375 152.75 127.78125 158.070312 C 126.8125 158.972656 125.710938 159.988281 124.542969 161.042969 C 120 154.054688 115.574219 147.003906 111.394531 139.816406 C 121.734375 140.492188 132.535156 140.945312 143.878906 141.183594 Z M 49.542969 114.171875 C 49.679688 115.425781 49.90625 116.679688 50.257812 117.921875 C 51.25 121.421875 53.054688 124.582031 55.441406 127.21875 C 46.996094 125.699219 39.042969 124.007812 31.3125 122.085938 C 30.285156 121.835938 29.09375 121.585938 27.800781 121.308594 C 21.691406 120.003906 13.324219 118.222656 10.664062 113.679688 C 10.472656 113.355469 10.363281 113.066406 10.261719 112.789062 Z M 49.378906 110.945312 L 10.761719 109.589844 C 15.230469 103.417969 37.375 100.457031 44.851562 99.464844 C 46.253906 99.289062 47.359375 99.140625 48.074219 99.015625 C 49.855469 98.726562 51.664062 98.449219 53.480469 98.160156 C 50.910156 101.988281 49.492188 106.40625 49.378906 110.945312 Z M 192.757812 96.367188 C 188.980469 96.46875 184.902344 96.554688 180.261719 96.605469 C 168.191406 96.730469 161.378906 96.441406 155.910156 96.21875 C 149.097656 95.929688 144.605469 95.738281 135.15625 96.617188 C 132.875 96.820312 130.027344 97.09375 126.890625 97.472656 C 122.449219 95.703125 118.019531 93.847656 113.640625 91.839844 C 121.003906 91.347656 127.945312 90.960938 134.679688 90.660156 C 152.382812 89.867188 171.589844 89.503906 193.960938 89.566406 Z M 246.039062 98.386719 C 240.894531 97.347656 236.128906 96.90625 231.773438 96.605469 C 217.75 95.640625 208.828125 95.902344 197.535156 96.230469 C 197.046875 96.242188 196.53125 96.253906 196.03125 96.265625 L 197.222656 89.59375 C 203.320312 89.617188 209.605469 89.667969 216.21875 89.753906 C 230.898438 89.957031 243.871094 90.371094 255.8125 91.011719 C 252.640625 93.910156 249.351562 96.34375 246.039062 98.386719 Z M 363.546875 113.882812 C 363.285156 114.597656 362.707031 115.261719 361.941406 115.875 L 316.738281 115.875 C 317.265625 113.355469 317.390625 110.542969 316.738281 107.507812 C 315.820312 103.21875 313.5 99.441406 310.351562 96.480469 C 321.378906 98.25 332.558594 100.507812 343.710938 103.242188 C 345.042969 103.570312 346.523438 103.859375 348.101562 104.160156 C 353.433594 105.1875 359.496094 106.367188 362.332031 109.917969 C 364.1875 112.25 363.710938 113.480469 363.546875 113.882812 Z M 149.195312 141.296875 C 154.652344 141.394531 160.113281 141.433594 165.542969 141.433594 C 172.332031 141.433594 179.105469 141.371094 185.769531 141.269531 C 185.957031 141.394531 186.171875 141.507812 186.421875 141.546875 C 186.507812 141.558594 186.609375 141.570312 186.695312 141.570312 C 187.0625 141.570312 187.386719 141.445312 187.664062 141.234375 C 190.183594 141.195312 192.679688 141.144531 195.164062 141.09375 C 195.402344 141.421875 195.65625 141.734375 195.894531 142.074219 C 189.847656 149.851562 182.105469 158.996094 173.359375 168.683594 C 166.171875 160.917969 157.289062 151.292969 148.734375 141.785156 C 148.882812 141.621094 149.046875 141.457031 149.195312 141.296875 Z M 164.917969 118.210938 C 159.875 118.898438 157.714844 119.089844 157.664062 119.089844 C 142.421875 120.316406 126.765625 121.824219 110.855469 123.542969 C 100.59375 121.160156 94.871094 118.324219 93.59375 115.714844 Z M 141.230469 106.167969 C 155.066406 110.71875 166.222656 113.191406 177.425781 115.4375 L 94.394531 112.527344 C 94.496094 112.414062 94.570312 112.3125 94.683594 112.1875 C 101.898438 104.972656 115.761719 102.125 126.476562 100.757812 C 131.382812 102.703125 136.300781 104.535156 141.230469 106.167969 Z M 189.609375 114.257812 C 189.320312 114.308594 189.019531 114.359375 188.742188 114.410156 C 187.148438 114.09375 185.554688 113.78125 183.988281 113.46875 C 170.789062 110.871094 158.316406 108.410156 142.234375 103.117188 C 139.285156 102.140625 136.335938 101.097656 133.386719 100.007812 C 134.117188 99.929688 134.804688 99.867188 135.457031 99.804688 C 140.503906 99.351562 144.101562 99.191406 147.425781 99.191406 C 150.1875 99.191406 152.746094 99.304688 155.769531 99.429688 C 161.292969 99.65625 168.140625 99.941406 180.285156 99.816406 C 184.703125 99.765625 188.578125 99.691406 192.191406 99.59375 Z M 215.300781 109.476562 C 206.746094 111.148438 199.367188 112.515625 192.96875 113.65625 L 195.464844 99.503906 C 196.195312 99.480469 196.921875 99.453125 197.636719 99.441406 C 208.839844 99.113281 217.6875 98.851562 231.550781 99.816406 C 234.824219 100.042969 238.199219 100.332031 241.722656 100.871094 C 231.210938 106.378906 221.109375 108.347656 215.300781 109.476562 Z M 274.445312 115.875 L 198.742188 115.875 C 203.886719 114.9375 209.542969 113.871094 215.90625 112.640625 C 222.527344 111.347656 234.546875 109 246.65625 101.800781 C 250.832031 102.714844 255.210938 104.03125 259.917969 106.101562 C 261.636719 106.855469 263.367188 107.546875 265.023438 108.210938 C 269.902344 110.167969 274.945312 112.175781 275.023438 114.320312 C 275.035156 114.660156 274.933594 115.1875 274.445312 115.875 Z M 177.851562 132.425781 C 180.636719 132.425781 183.535156 132.386719 186.410156 132.335938 L 185.867188 135.410156 C 179.054688 135.449219 172.269531 135.460938 165.492188 135.472656 C 130.476562 135.398438 103.164062 133.90625 77.898438 130.679688 C 88.875 129.289062 99.789062 127.984375 110.566406 126.816406 C 126.125 130.40625 149.609375 132.425781 177.851562 132.425781 Z M 188.753906 119.050781 L 186.972656 129.152344 C 158.894531 129.578125 137.214844 128.046875 121.820312 125.636719 C 134.039062 124.382812 146.121094 123.242188 157.917969 122.300781 C 158.304688 122.261719 164.804688 121.710938 182.066406 118.8125 Z M 232.164062 125.601562 C 223.910156 122.863281 216.605469 120.792969 209.832031 119.089844 L 270.429688 119.089844 C 268.722656 120.078125 266.402344 121.183594 263.203125 122.402344 C 257.644531 124.535156 248.460938 125.914062 235.953125 126.929688 C 234.6875 126.492188 233.429688 126.015625 232.164062 125.601562 Z M 202.691406 128.722656 C 198.414062 128.886719 194.273438 129.011719 190.246094 129.085938 L 192.015625 119.089844 L 195.566406 119.089844 C 205.050781 121.097656 215.339844 123.605469 227.648438 127.519531 C 220.246094 127.996094 211.914062 128.371094 202.691406 128.722656 Z M 189.132812 135.386719 L 189.683594 132.3125 C 193.972656 132.222656 198.351562 132.097656 202.820312 131.9375 C 215.566406 131.445312 226.429688 130.90625 235.550781 130.191406 C 239.113281 131.421875 242.652344 132.6875 246.179688 134.03125 C 227.144531 134.960938 208.074219 135.273438 189.132812 135.386719 Z M 315.796875 119.089844 L 355.253906 119.089844 C 349.859375 120.832031 343.210938 121.925781 339.421875 122.550781 C 337.878906 122.800781 336.660156 123.003906 335.894531 123.167969 C 327.414062 125.011719 318.859375 126.554688 310.25 127.882812 C 311.304688 126.804688 314.089844 123.644531 315.796875 119.089844 Z M 307.652344 125.953125 C 307 126.554688 306.964844 127.570312 307.578125 128.210938 C 307.605469 128.234375 307.628906 128.246094 307.652344 128.273438 C 290.992188 130.757812 274.132812 132.375 257.195312 133.429688 L 256.050781 132.601562 C 255.824219 132.914062 255.601562 133.226562 255.375 133.527344 C 254.859375 133.566406 254.359375 133.605469 253.84375 133.628906 C 250.332031 132.199219 246.804688 130.820312 243.21875 129.488281 C 252.550781 128.511719 259.578125 127.230469 264.359375 125.410156 C 268.296875 123.894531 273.078125 121.8125 275.875 119.089844 L 312.347656 119.089844 C 310.539062 123.179688 307.84375 125.761719 307.652344 125.953125 Z M 53.34375 117.042969 C 53.082031 116.128906 52.894531 115.199219 52.765625 114.285156 L 90.191406 115.589844 C 90.269531 116.050781 90.40625 116.492188 90.570312 116.867188 C 91.847656 119.777344 95.9375 122.351562 102.300781 124.519531 C 90.855469 125.8125 79.316406 127.191406 67.648438 128.738281 C 67.207031 128.800781 66.832031 129.023438 66.582031 129.351562 C 66.417969 129.324219 66.265625 129.3125 66.089844 129.277344 L 65.550781 129.125 C 64.949219 128.988281 64.347656 128.847656 63.496094 128.585938 C 62.816406 128.484375 62.175781 128.359375 61.511719 128.246094 C 57.636719 125.5625 54.660156 121.660156 53.34375 117.042969 Z M 301.507812 95.152344 C 302.046875 95.226562 302.597656 95.328125 303.136719 95.402344 C 308.40625 97.910156 312.398438 102.539062 313.601562 108.1875 C 314.203125 110.996094 314.015625 113.582031 313.449219 115.875 L 277.996094 115.875 C 278.160156 115.335938 278.246094 114.785156 278.234375 114.21875 C 278.09375 109.980469 272.585938 107.773438 266.214844 105.226562 C 264.597656 104.585938 262.890625 103.90625 261.222656 103.167969 C 257.445312 101.5 253.84375 100.308594 250.382812 99.402344 C 253.117188 97.535156 255.824219 95.414062 258.449219 92.96875 C 259.101562 92.351562 259.679688 91.789062 260.191406 91.273438 C 275.046875 92.164062 288.960938 93.46875 301.507812 95.152344 Z M 104.332031 92.476562 L 105.121094 92.414062 L 105.449219 92.0625 L 105.472656 91.777344 C 105.710938 91.914062 105.960938 92.027344 106.363281 92.203125 L 106.839844 92.300781 L 107.128906 92.277344 C 107.140625 92.277344 107.140625 92.277344 107.15625 92.277344 C 111.597656 94.421875 116.074219 96.480469 120.578125 98.386719 C 110.480469 100.082031 99.0625 103.28125 92.425781 109.929688 C 91.558594 110.78125 91.019531 111.609375 90.65625 112.390625 L 52.589844 111.058594 C 52.691406 106.089844 54.625 101.285156 58.085938 97.484375 C 72.390625 95.414062 87.609375 93.757812 104.332031 92.476562 Z M 200.6875 198.015625 C 197.058594 194.164062 193.507812 190.351562 189.945312 186.523438 C 194.550781 186.460938 199.230469 186.121094 203.773438 185.769531 C 205.691406 185.621094 207.597656 185.46875 209.507812 185.34375 L 209.832031 185.320312 L 215.867188 178.808594 L 214.011719 178.820312 C 209.757812 178.882812 205.492188 179.246094 201.363281 179.609375 C 195.71875 180.101562 189.871094 180.601562 184.125 180.277344 C 183.234375 179.324219 182.332031 178.367188 181.453125 177.414062 L 176.398438 171.957031 C 176.132812 171.667969 175.832031 171.34375 175.554688 171.054688 C 184.164062 161.519531 191.828125 152.484375 197.875 144.757812 C 205.515625 155.132812 213.445312 165.347656 221.636719 175.359375 C 215.078125 182.773438 208.101562 190.3125 200.6875 198.015625 Z M 224.738281 179.097656 L 222.679688 179.019531 C 223.019531 178.632812 223.371094 178.242188 223.707031 177.855469 C 224.046875 178.269531 224.386719 178.683594 224.738281 179.097656 Z M 148.621094 194.792969 C 146.398438 191.945312 144.179688 189.121094 142.019531 186.234375 C 146.359375 185.808594 151.253906 185.355469 156.132812 185.09375 L 156.460938 185.070312 L 158.367188 183.046875 C 159.222656 182.144531 160.074219 181.242188 160.914062 180.324219 L 162.183594 178.933594 L 160.3125 178.984375 C 152.960938 179.132812 145.507812 179.738281 138.519531 180.351562 C 138.308594 180.363281 138.105469 180.375 137.894531 180.402344 C 137.867188 180.402344 137.84375 180.402344 137.816406 180.402344 C 133.878906 174.945312 130.050781 169.386719 126.335938 163.765625 C 127.65625 162.5625 128.882812 161.433594 129.988281 160.402344 C 135.621094 155.109375 141.105469 149.625 146.488281 144.09375 C 155.105469 153.664062 164.011719 163.3125 171.214844 171.078125 C 164.125 178.859375 156.472656 186.914062 148.621094 194.792969 Z M 35.703125 134.683594 L 35.679688 134.082031 L 28.640625 132.425781 L 28.617188 133.417969 C 28.429688 140.429688 28.464844 147.441406 28.617188 154.457031 L 24.5 158.570312 L 10.4375 144.507812 C 10.234375 137.40625 9.722656 129.652344 8.753906 122.164062 C 15.042969 125.648438 23.859375 127.21875 31.800781 128.609375 C 32.820312 128.785156 33.773438 128.949219 34.726562 129.125 C 34.1875 129.589844 33.972656 130.34375 34.285156 131.019531 C 39.605469 142.234375 45.265625 153.328125 51.199219 164.265625 L 38.414062 174.792969 C 37.296875 161.40625 36.382812 148.019531 35.703125 134.683594 Z M 28.828125 162.898438 L 26.773438 160.84375 L 28.730469 158.886719 C 28.777344 160.226562 28.777344 161.570312 28.828125 162.898438 Z M 317.363281 186.171875 C 320.476562 188.71875 323.738281 191.117188 327.113281 193.363281 C 326.285156 194.980469 325.417969 196.585938 324.566406 198.191406 C 317.125 195.292969 309.851562 193.023438 304.378906 191.316406 L 304.066406 191.230469 C 306.550781 187.828125 309.023438 184.429688 311.480469 181.003906 C 313.375 182.785156 315.34375 184.515625 317.363281 186.171875 Z M 334 179.246094 C 332.257812 183.023438 330.488281 186.789062 328.617188 190.511719 C 325.433594 188.378906 322.34375 186.109375 319.398438 183.6875 C 317.328125 181.980469 315.320312 180.199219 313.375 178.367188 C 320.339844 168.609375 327.125 158.722656 333.75 148.773438 C 334.101562 158.898438 334.164062 169.058594 334 179.246094 Z M 333.597656 193.648438 C 332.847656 193.1875 332.09375 192.695312 331.339844 192.230469 C 332.207031 190.527344 333.023438 188.792969 333.851562 187.074219 C 333.789062 189.257812 333.6875 191.453125 333.597656 193.648438 Z M 297.453125 183.261719 C 299.171875 183.699219 300.917969 184.164062 302.636719 184.679688 L 303.476562 184.929688 L 303.652344 184.066406 C 304.265625 181.078125 304.804688 177.992188 305.332031 174.78125 C 306.574219 176.125 307.867188 177.429688 309.171875 178.71875 C 306.386719 182.597656 303.589844 186.449219 300.753906 190.289062 L 298.847656 189.75 C 297.628906 189.398438 296.398438 189.03125 295.15625 188.730469 L 293.101562 188.21875 L 294.304688 189.960938 C 294.78125 190.664062 295.257812 191.355469 295.746094 192.042969 C 296.210938 192.710938 296.675781 193.375 297.140625 194.039062 L 297.53125 194.617188 C 297.316406 194.90625 297.101562 195.207031 296.890625 195.480469 C 290.441406 186.449219 284.382812 177.113281 278.722656 167.515625 C 280.59375 165.070312 282.511719 162.660156 284.34375 160.191406 C 285.886719 158.121094 287.679688 155.773438 289.539062 153.351562 C 292.324219 158.132812 295.398438 162.671875 298.746094 166.964844 C 298.230469 171.859375 297.515625 176.851562 296.5 182.246094 L 296.363281 182.972656 Z M 141.015625 284.785156 C 136.160156 280.207031 131.394531 275.449219 126.851562 270.558594 C 134.203125 264.636719 141.417969 258.550781 148.53125 252.339844 C 156.675781 260.09375 165.191406 267.457031 174.027344 274.460938 C 169.746094 278.1875 165.429688 281.898438 161.066406 285.539062 C 154.128906 285.4375 147.453125 285.1875 141.015625 284.785156 Z M 238.199219 282.578125 C 236.34375 281.234375 234.511719 279.855469 232.679688 278.472656 C 239.339844 271.136719 245.914062 263.671875 252.402344 256.128906 C 259.539062 263.34375 265.8125 269.605469 270.855469 274.621094 C 269.640625 275.964844 268.433594 277.34375 267.191406 278.675781 C 258.046875 280.28125 248.386719 281.574219 238.199219 282.578125 Z M 330.464844 236.269531 C 325.46875 230.988281 320.589844 225.554688 315.898438 219.984375 C 318.605469 215.554688 321.214844 211.0625 323.75 206.523438 L 328.429688 208.804688 L 328.503906 207.613281 C 328.65625 205.253906 328.78125 202.871094 328.894531 200.5 L 328.917969 199.671875 L 327.550781 199.648438 L 326.347656 201.730469 C 326.261719 201.894531 326.171875 202.054688 326.070312 202.21875 C 327.363281 199.847656 328.605469 197.464844 329.835938 195.082031 C 331.039062 195.820312 332.246094 196.546875 333.472656 197.261719 C 332.882812 210.285156 331.878906 223.308594 330.464844 236.269531 Z M 373.144531 110.847656 C 369.820312 104.058594 358.980469 101.171875 351.554688 99.203125 L 349.496094 98.652344 C 337.351562 95.277344 324.277344 92.554688 309.523438 90.320312 C 284.90625 86.570312 258.324219 84.613281 223.292969 83.960938 C 195.417969 83.445312 170.9375 83.53125 148.457031 84.222656 C 121.132812 85.074219 96.554688 86.832031 73.316406 89.605469 C 58.226562 91.386719 44.613281 93.117188 30.925781 96.328125 C 12.542969 100.683594 2.933594 105.664062 1.515625 111.523438 L 0.488281 111.75 C 4.503906 130.203125 4.550781 154.445312 3.636719 165.394531 C 2.910156 174.078125 0.136719 227.6875 3.824219 237.460938 C 6.257812 243.859375 9.632812 247.296875 12.921875 249.65625 C 16.785156 255.277344 22.757812 258.289062 28.578125 261.1875 L 30.75 262.277344 C 45.652344 269.832031 57.535156 274.875 69.289062 278.613281 C 101.246094 288.738281 134.996094 291.621094 167.425781 291.621094 C 185.367188 291.621094 202.917969 290.746094 219.542969 289.714844 C 249.878906 287.832031 276.527344 283.855469 300.992188 277.558594 C 318.167969 273.140625 337.625 268.136719 352.34375 256.570312 C 359.332031 251.0625 363.558594 244.6875 365.003906 237.613281 C 367.410156 236.734375 368.730469 234.109375 367.9375 231.640625 C 365.503906 224.050781 358.605469 141.21875 373.859375 116.816406 C 375.078125 114.871094 374.726562 112.390625 373.144531 110.847656 "/></g></g></svg>